<?xml version="1.0" encoding="UTF-8"?>
<svg id="Layer_1" data-name="Layer 1" xmlns="http://www.w3.org/2000/svg" viewBox="0 0 568.502 136.0802">
  <path id="fullLogo" d="m78.071,60.8231c11.343-21.2319,11.843-35.811.714-53.369-9.144,18.714-11.414,32.2421-.714,53.369m1.276,66.892c9.744-13.5289,11.634-33.2319-.713-53.8099-9.055,21.813-13.966,28.979.713,53.8099m-43.322-13.5099c16.473-1.3201,35.811-22.4801,37.404-41.425-21.222,7.313-32.21,21.887-37.404,41.425m.519-92.948c4.464,18.074,18.521,35.6689,36.492,41.568-2.743-24.2821-18.414-37.879-36.492-41.568m-27.986,46.37c19.847,12.647,49.607,13.537,64.341-.1371-6.585-5.762-14.759-7.877-21.813-9.329-4.664-.96-11.169-.656-14.13-.412-10.436.863-19.174,5.2209-28.398,9.8781m82.736,41.0229c-1.906,11.377-6.307,15.745-12.238,27.4301-5.78-11.281-14.567-22.9-12.52-36.4331-8.283,12.0281-22.502,18.6521-36.292,19.2721,2.446-12.563,9.363-30.524,20.256-37.5591-20.197,3.291-36.214-4.6799-50.5-13.0819,14.067-11.2571,32.611-17.0961,49.516-14.911-10.701-8.917-15.628-25.165-18.569-37.6991,13.481,1.0741,27.066,6.7631,34.886,18.2871C66.931,22.0202,71.457,12.2551,78.279.0001c.44-.049,10.685,13.615,13.015,25.796,1.248,7.603.305,15.4091-2.954,24.1949-4.316,11.634-10.02,13.942-3.657,25.8831,5.52,10.3621,8.36,24.125,6.611,32.776" style="fill: #213368; stroke-width: 0px;"/>
  <path id="fullLogo-2" data-name="fullLogo" d="m568.502,32.776h-5.465l-5.504,10.217-5.228-10.217h-5.464l7.959,14.9301v11.2059h4.99v-11.2059l8.712-14.9301Zm-29.7,13.0291c0,5.583-3.326,8.7119-9.266,8.7119h-3.96v-17.345h3.96c2.851,0,4.871.515,6.257,1.5441,1.861,1.386,3.009,4.1189,3.009,7.089m5.386-.04c0-3.405-1.267-6.7319-3.525-9.147-2.574-2.733-5.662-3.842-10.612-3.842h-9.702v26.136h9.662c4.712,0,8.158-1.267,10.573-3.8409,2.297-2.4551,3.604-5.821,3.604-9.306m-31.244,2.931v-15.92h-4.99v16.197c0,3.762-2.02,5.821-5.821,5.821-4.158,0-6.178-1.9401-6.178-5.821v-16.197h-4.95v15.92c0,4.791.871,6.969,3.564,8.83,1.98,1.347,4.119,1.901,7.405,1.901,3.248,0,5.465-.594,7.366-1.901,2.7321-1.9,3.604-4.0389,3.604-8.83m-26.373-11.682v-4.238h-20.671v4.238h7.84v21.8979h4.99v-21.8979h7.841Zm-23.324-2.495c-1.743-.832-2.455-1.109-3.723-1.505-1.623-.475-3.168-.673-4.91-.673-3.049,0-4.673.4349-6.574,1.7419-.831.594-1.504,1.267-1.94,1.941-.634.99-1.03,2.3359-1.03,3.6429,0,2.8511,1.426,4.593,6.059,7.2471l4.039,2.2959c1.703.951,2.297,1.703,2.297,2.812,0,1.5841-1.5049,2.614-3.801,2.614-1.03,0-2.456-.278-3.762-.7529-1.03-.396-1.822-.792-3.723-1.821l-2.099,4.593,1.703.792c2.733,1.267,3.604,1.584,5.465,1.822.752.119,1.544.158,2.336.158,5.782,0,9.188-2.7319,9.188-7.405,0-1.8219-.674-3.564-1.782-4.673-1.228-1.2269-3.842-2.891-7.841-5.0289-1.861-.99-2.495-1.6631-2.495-2.7721,0-1.465,1.505-2.4159,3.841-2.4159,1.743,0,4,.6339,6.772,1.8619l1.98-4.475Zm-33.224,24.3929v-4.2369h-11.444v-6.969h8.949v-4.238h-8.949v-6.454h10.929v-4.238h-15.919v26.136h16.434Zm-24.749,0v-26.136h-4.99v10.4551h-13.424v-10.4551h-4.99v26.136h4.99v-11.2059h13.424v11.2059h4.99Zm-28.512-21.8979v-4.238h-20.671v4.238h7.841v21.8979h4.989v-21.8979h7.841Zm-38.848,3.484c0,2.614-1.386,3.723-4.554,3.723h-3.247v-7.207h3.247c3.248,0,4.554.99,4.554,3.484m6.138,18.4139l-6.494-11.2059c2.178-.594,3.089-1.149,4.079-2.416.95-1.267,1.425-2.891,1.425-4.91,0-2.4559-.712-4.356-2.138-5.663-1.544-1.465-3.287-1.941-7.088-1.941h-8.712v26.136h4.989v-10.454h2.495l5.98,10.454h5.464Zm-30.214-13.068c0,5.307-3.643,9.2271-8.553,9.2271-4.95,0-8.593-3.92-8.593-9.2271,0-5.266,3.643-9.226,8.593-9.226,4.91,0,8.553,3.96,8.553,9.226m5.307,0c0-8.078-5.623-13.543-13.86-13.543-8.277,0-13.9,5.465-13.9,13.543,0,7.9601,5.742,13.583,13.9,13.583,8.118,0,13.86-5.6229,13.86-13.583m-31.085-8.83v-4.238h-16.197v26.136h4.99v-10.969h9.187v-4.197h-9.187v-6.7319h11.207Zm-38.412,3.484c0,2.614-1.386,3.723-4.554,3.723h-3.247v-7.207h3.247c3.247,0,4.554.99,4.554,3.484m6.138,18.4139l-6.495-11.2059c2.178-.594,3.089-1.149,4.079-2.416.951-1.267,1.426-2.891,1.426-4.91,0-2.4559-.713-4.356-2.139-5.663-1.544-1.465-3.286-1.941-7.088-1.941h-8.712v26.136h4.99v-10.454h2.494l5.98,10.454h5.465Zm-25.027,0v-4.2369h-11.444v-6.969h8.95v-4.238h-8.95v-6.454h10.93v-4.238h-15.92v26.136h16.434Zm-21.541-21.8979v-4.238h-20.671v4.238h7.84v21.8979h4.99v-21.8979h7.841Zm-25.225,22.136v-26.374h-4.712v19.4041c-.317-.8311-.634-1.6631-1.386-2.8511l-10.573-16.553h-5.742v26.136h4.752v-19.166c.118.436.198.594.356.911l.871,1.584,11.207,16.9091h5.227Zm-28.749-.238v-4.2369h-11.444v-6.969h8.95v-4.238h-8.95v-6.454h10.93v-4.238h-15.92v26.136h16.434Zm-22.096-24.116c-2.257-1.703-4.871-2.495-8.197-2.495-4.317,0-7.247,1.069-9.861,3.6429-2.574,2.535-3.999,5.9801-3.999,9.7821,0,4.078,1.623,7.959,4.395,10.454,2.456,2.218,5.386,3.2469,9.465,3.2469,1.544,0,2.93-.158,4.197-.4349,1.188-.2781,1.862-.515,3.525-1.2681l-.911-4.197c-2.336.911-3.881,1.2271-5.742,1.2271-5.702,0-9.425-3.682-9.425-9.306,0-4.95,3.604-8.514,8.633-8.514,2.297,0,4.316.5941,6.019,1.822l1.901-3.96Z" style="fill: #213368; stroke-width: 0px;"/>
  <path id="fullLogo-3" data-name="fullLogo" d="m565.691,82.6126c-1.742-.8309-2.455-1.1079-3.723-1.5039-1.623-.4761-3.168-.6741-4.91-.6741-3.049,0-4.673.436-6.573,1.743-.832.594-1.505,1.267-1.941,1.9399-.634.99-1.03,2.337-1.03,3.6431,0,2.8519,1.426,4.594,6.059,7.2469l4.04,2.297c1.702.9501,2.296,1.703,2.296,2.812,0,1.584-1.505,2.613-3.801,2.613-1.03,0-2.456-.277-3.762-.7521-1.03-.396-1.822-.792-3.723-1.8219l-2.099,4.594,1.703.792c2.733,1.267,3.604,1.584,5.465,1.8209.752.119,1.5439.1591,2.3359.1591,5.782,0,9.188-2.733,9.188-7.405,0-1.822-.674-3.564-1.782-4.673-1.228-1.228-3.842-2.891-7.8409-5.0291-1.861-.99-2.495-1.6639-2.495-2.772,0-1.4659,1.505-2.416,3.8409-2.416,1.743,0,4,.634,6.772,1.8611l1.98-4.4751Zm-27.205,24.6321v-26.374h-4.712v19.4041c-.317-.832-.634-1.6631-1.386-2.8511l-10.573-16.553h-5.7419v26.136h4.752v-19.166c.119.4351.198.594.356.91l.871,1.584,11.207,16.91h5.227Zm-35.322-13.306c0,5.306-3.643,9.2271-8.554,9.2271-4.95,0-8.593-3.921-8.593-9.2271,0-5.267,3.643-9.2271,8.593-9.2271,4.911,0,8.554,3.9601,8.554,9.2271m5.306,0c0-8.078-5.623-13.543-13.86-13.543-8.276,0-13.899,5.465-13.899,13.543,0,7.96,5.742,13.583,13.899,13.583,8.118,0,13.86-5.623,13.86-13.583m-35.005-13.068h-4.99v26.136h4.99v-26.136Zm-14.691,25.146v-10.692h-4.99v7.207c-1.544.436-2.218.5549-3.406.5549-5.821,0-10.296-4.079-10.296-9.4249,0-5.188,4.079-8.791,9.94-8.791,1.663,0,3.524.316,5.386.95.475.1581,1.188.396,2.138.7521l1.188-4.1581c-1.822-.792-2.614-1.069-3.881-1.386-1.663-.396-3.564-.594-5.465-.594-4.514,0-7.524,1.03-10.216,3.485-2.812,2.5741-4.317,6.019-4.317,9.979,0,8.079,6.019,13.623,14.692,13.623,2.178,0,3.801-.238,6.573-.871l2.654-.634Zm-31.957-25.146h-4.99v26.136h4.99v-26.136Zm-12.157,26.136v-4.2369h-10.692v-21.899h-4.989v26.136h15.681Zm-23.957,0v-4.2369h-11.444v-6.9701h8.949v-4.2369h-8.949v-6.4551h10.929v-4.2369h-15.919v26.136h16.434Zm-30.135-18.4139c0,2.6139-1.386,3.7219-4.554,3.7219h-3.247v-7.207h3.247c3.247,0,4.554.9901,4.554,3.4851m6.138,18.4139l-6.495-11.207c2.178-.594,3.089-1.1479,4.079-2.4149.951-1.2681,1.426-2.891,1.426-4.911,0-2.4551-.713-4.3561-2.139-5.6631-1.544-1.465-3.286-1.9399-7.088-1.9399h-8.712v26.136h4.99v-10.454h2.494l5.98,10.454h5.465Zm-45.104-13.108c0,5.584-3.327,8.712-9.267,8.712h-3.96v-17.344h3.96c2.851,0,4.871.514,6.257,1.5439,1.861,1.3861,3.01,4.118,3.01,7.088m5.385-.0389c0-3.406-1.267-6.7321-3.524-9.1481-2.574-2.7319-5.663-3.8409-10.613-3.8409h-9.702v26.136h9.662c4.713,0,8.158-1.267,10.574-3.8409,2.296-2.4551,3.603-5.821,3.603-9.306m-30.887,13.147v-4.2369h-10.692v-21.899h-4.99v26.136h15.682Zm-29.383-18.4139c0,2.6139-1.386,3.7219-4.554,3.7219h-3.248v-7.207h3.248c3.247,0,4.554.9901,4.554,3.4851m6.138,18.4139l-6.495-11.207c2.178-.594,3.089-1.1479,4.079-2.4149.95-1.2681,1.426-2.891,1.426-4.911,0-2.4551-.713-4.3561-2.139-5.6631-1.544-1.465-3.286-1.9399-7.088-1.9399h-8.712v26.136h4.989v-10.454h2.495l5.98,10.454h5.465Zm-32.392-13.068c0,5.306-3.644,9.2271-8.554,9.2271-4.95,0-8.593-3.921-8.593-9.2271,0-5.267,3.643-9.2271,8.593-9.2271,4.91,0,8.554,3.9601,8.554,9.2271m5.306,0c0-8.078-5.623-13.543-13.86-13.543-8.276,0-13.9,5.465-13.9,13.543,0,7.96,5.742,13.583,13.9,13.583,8.118,0,13.86-5.623,13.86-13.583m-32.195-13.068h-4.712l-6.217,19.4041-3.762-8.9501,3.999-10.454h-4.237l-1.742,5.2271-1.98-5.2271h-4.475l4.237,10.969-3.247,8.712-6.732-19.681h-5.227l9.979,26.651h3.207l4-11.207,3.96,11.207h3.485l9.464-26.651Zm-50.133,4.2369v-4.2369h-16.196v26.136h4.989v-10.969h9.188v-4.198h-9.188v-6.7321h11.207Zm-29.659,8.8311c0,5.306-3.644,9.2271-8.554,9.2271-4.95,0-8.593-3.921-8.593-9.2271,0-5.267,3.643-9.2271,8.593-9.2271,4.91,0,8.554,3.9601,8.554,9.2271m5.306,0c0-8.078-5.623-13.543-13.86-13.543-8.276,0-13.9,5.465-13.9,13.543,0,7.96,5.742,13.583,13.9,13.583,8.118,0,13.86-5.623,13.86-13.583" style="fill: #213368; stroke-width: 0px;"/>
</svg>